<svg width="33" height="33" viewBox="0 0 33 33" fill="none" xmlns="http://www.w3.org/2000/svg">
<path d="M15.3487 24.0241C20.6874 24.0241 25.3053 21.0611 27.6811 16.6834C25.3053 12.3057 20.6874 9.34273 15.3487 9.34273C10.01 9.34273 5.39208 12.3057 3.01637 16.6834C5.39208 21.0611 10.01 24.0241 15.3487 24.0241ZM15.3487 8.00806C21.4348 8.00806 26.6934 11.5449 29.1759 16.6834C26.6934 21.8219 21.4348 25.3587 15.3487 25.3587C9.26262 25.3587 4.00403 21.8219 1.52155 16.6834C4.00403 11.5449 9.26262 8.00806 15.3487 8.00806ZM15.3487 10.6774C18.6854 10.6774 21.3547 13.3467 21.3547 16.6834C21.3547 20.0201 18.6854 22.6894 15.3487 22.6894C12.012 22.6894 9.3427 20.0201 9.3427 16.6834C9.3427 13.3467 12.012 10.6774 15.3487 10.6774ZM15.3487 12.0121C14.1098 12.0121 12.9216 12.5042 12.0456 13.3803C11.1695 14.2563 10.6774 15.4445 10.6774 16.6834C10.6774 17.9223 11.1695 19.1105 12.0456 19.9865C12.9216 20.8626 14.1098 21.3547 15.3487 21.3547C16.5876 21.3547 17.7758 20.8626 18.6518 19.9865C19.5279 19.1105 20.0201 17.9223 20.0201 16.6834C20.0201 15.4445 19.5279 14.2563 18.6518 13.3803C17.7758 12.5042 16.5876 12.0121 15.3487 12.0121Z" fill="black" fill-opacity="0.5"/>
</svg>
