<svg width="150" height="150" viewBox="0 0 150 150" fill="none" xmlns="http://www.w3.org/2000/svg">
<path d="M53.125 68.75C61.7545 68.75 68.75 61.7545 68.75 53.125C68.75 44.4956 61.7545 37.5 53.125 37.5C44.4956 37.5 37.5 44.4956 37.5 53.125C37.5 61.7545 44.4956 68.75 53.125 68.75Z" fill="#478DF8"/>
<path d="M100 62.5C87.5 62.5 81.25 81.25 71.875 81.25C62.5 81.25 62.5063 75 50 75C37.4938 75 31.2438 100 31.2438 100H118.75C118.75 100 112.5 62.5 100 62.5ZM125 18.75H25C18.1063 18.75 12.5 24.3562 12.5 31.25V106.25C12.5 113.144 18.1063 118.75 25 118.75H125C131.894 118.75 137.5 113.144 137.5 106.25V31.25C137.5 24.3562 131.894 18.75 125 18.75ZM125 106.25H25V31.25H125V106.25Z" fill="#478DF8"/>
</svg>
