<svg width="150" height="150" viewBox="0 0 150 150" fill="none" xmlns="http://www.w3.org/2000/svg">
<path d="M131.836 37.5C129.741 37.5007 127.675 37.9897 125.802 38.9283C123.929 39.8669 122.301 41.2292 121.047 42.907C119.792 44.5849 118.946 46.532 118.576 48.5939C118.206 50.6558 118.321 52.7757 118.913 54.7852L98.0039 75.6914C95.2464 74.7728 92.2654 74.7728 89.5078 75.6914L74.0068 60.1904C74.5169 58.2 74.5651 56.1194 74.1478 54.1075C73.7304 52.0956 72.8586 50.2058 71.5988 48.5826C70.3391 46.9593 68.7249 45.6456 66.8796 44.7419C65.0344 43.8381 63.0069 43.3683 60.9521 43.3683C58.8974 43.3683 56.8699 43.8381 55.0246 44.7419C53.1794 45.6456 51.5652 46.9593 50.3054 48.5826C49.0457 50.2058 48.1739 52.0956 47.7565 54.1075C47.3392 56.1194 47.3874 58.2 47.8975 60.1904L21.9727 86.0977C19.0944 85.2457 16.0144 85.3772 13.2193 86.4715C10.4242 87.5658 8.0735 89.5605 6.53881 92.1402C5.00411 94.7198 4.37292 97.7374 4.74501 100.716C5.11711 103.694 6.47125 106.464 8.59341 108.587C10.7156 110.71 13.4847 112.065 16.4631 112.438C19.4415 112.811 22.4593 112.181 25.0395 110.647C27.6196 109.113 29.615 106.763 30.7102 103.968C31.8054 101.173 31.938 98.0933 31.0869 95.2148L56.6836 69.6211C59.441 70.5403 62.4222 70.5403 65.1797 69.6211L80.6836 85.125C80.1735 87.1154 80.1253 89.1961 80.5426 91.2079C80.96 93.2198 81.8319 95.1096 83.0916 96.7329C84.3513 98.3561 85.9655 99.6698 87.8108 100.574C89.6561 101.477 91.6836 101.947 93.7383 101.947C95.793 101.947 97.8205 101.477 99.6658 100.574C101.511 99.6698 103.125 98.3561 104.385 96.7329C105.645 95.1096 106.517 93.2198 106.934 91.2079C107.351 89.1961 107.303 87.1154 106.793 85.125L128.027 63.9023C129.881 64.4492 131.831 64.591 133.744 64.318C135.658 64.045 137.49 63.3636 139.117 62.3201C140.744 61.2766 142.127 59.8954 143.173 58.2701C144.219 56.6449 144.903 54.8136 145.179 52.9007C145.455 50.9877 145.316 49.0378 144.772 47.1831C144.228 45.3285 143.292 43.6126 142.026 42.1518C140.76 40.6911 139.195 39.5196 137.437 38.717C135.679 37.9144 133.769 37.4993 131.836 37.5Z" fill="#478DF8"/>
</svg>
