<svg width="150" height="150" viewBox="0 0 150 150" fill="none" xmlns="http://www.w3.org/2000/svg">
<path d="M75 0C66.854 0 60.5805 6.7965 60.5805 14.9231C60.5805 22.7505 60.5256 29.599 60.5256 29.599H46.0419C45.7692 29.599 45.5055 29.6291 45.2454 29.6723H41.217V43.7439H108.783V29.6723H104.755C104.494 29.6291 104.231 29.599 103.958 29.599H89.4745C89.4745 29.599 89.6393 23.3995 89.6393 14.9689C89.6393 7.14138 83.146 0 75 0ZM21.8994 14.2731V150H128.1V14.2731H94.455V24.1059H118.378V140.149H31.6315V24.1059H55.545V14.2731H21.8994ZM75 14.4561C77.6688 14.4561 79.8249 16.6036 79.8249 19.2626C79.8249 21.9265 77.6688 24.0783 75 24.0783C72.3312 24.0783 70.1751 21.9264 70.1751 19.2626C70.1751 16.6038 72.3312 14.4561 75 14.4561ZM41.217 53.2837V58.0994H46.0419V53.2837H41.217ZM55.7006 53.3753V58.1909H108.783V53.3753H55.7006ZM41.217 71.4477V76.2634H46.0419V71.4477H41.217ZM55.7006 71.5393V76.3641H108.783V71.5393H55.7006ZM41.217 89.6119V94.4275H46.0419V89.6119H41.217ZM55.7006 89.7125V94.5281H108.783V89.7125H55.7006ZM41.217 107.785V112.601H46.0419V107.785H41.217ZM55.7006 107.886V112.701H108.783V107.886H55.7006ZM41.217 125.949V130.765H46.0419V125.949H41.217ZM55.7006 126.05V130.865H108.783V126.05H55.7006Z" fill="#478DF8"/>
</svg>
