<svg width="32" height="32" viewBox="0 0 32 32" fill="none" xmlns="http://www.w3.org/2000/svg">
<path d="M27 31H5.00004C4.47306 31 3.95128 30.9063 3.46467 30.7243C2.97807 30.5422 2.53622 30.2754 2.16452 29.9392C1.79283 29.603 1.49861 29.2041 1.29877 28.7652C1.09893 28.3264 0.997415 27.8563 1.00005 27.382V10.4983C1.00005 9.92527 1.30005 9.39728 1.80005 9.05078L14.7667 1.36188C15.1123 1.12704 15.5336 1 15.9667 1C16.3997 1 16.821 1.12704 17.1667 1.36188L30.2 9.05078C30.7 9.39728 31 9.92527 31 10.4983V27.382C31.0026 27.8563 30.9011 28.3264 30.7012 28.7652C30.5014 29.2041 30.2072 29.603 29.8355 29.9392C29.4638 30.2754 29.0219 30.5422 28.5353 30.7243C28.0487 30.9063 27.5269 31 27 31Z" stroke="#478DF8" stroke-width="2" stroke-miterlimit="10" stroke-linejoin="round"/>
<path d="M12.3333 16H19.6667C20.4 16 21 16.54 21 17.2V30.9998H11V17.2C11 16.54 11.6 16 12.3333 16Z" stroke="#478DF8" stroke-width="2" stroke-miterlimit="10" stroke-linejoin="round"/>
</svg>
