<svg width="60" height="60" viewBox="0 0 60 60" fill="none" xmlns="http://www.w3.org/2000/svg">
<path d="M30 1.07129C25.08 1.07129 20.2757 1.52129 15.6728 2.03557C12.1744 2.43672 8.91552 4.01288 6.42904 6.50637C3.94255 8.99986 2.37557 12.2632 1.98427 15.7627C1.49141 20.3441 1.07141 25.1141 1.07141 29.9999C1.07141 34.8856 1.49141 39.6556 1.98427 44.237C2.37557 47.7366 3.94255 50.9999 6.42904 53.4933C8.91552 55.9868 12.1744 57.563 15.6728 57.9641C20.2757 58.4784 25.08 58.9284 30 58.9284C34.92 58.9284 39.7243 58.4784 44.3271 57.9641C47.8256 57.563 51.0844 55.9868 53.5709 53.4933C56.0574 50.9999 57.6244 47.7366 58.0157 44.237C58.5086 39.6556 58.9286 34.8856 58.9286 29.9999C58.9286 25.1141 58.5086 20.3441 58.0157 15.7627C57.6244 12.2632 56.0574 8.99986 53.5709 6.50637C51.0844 4.01288 47.8256 2.43672 44.3271 2.03557C39.7243 1.52129 34.92 1.07129 30 1.07129Z" fill="#8FBFFA"/>
<path d="M9.17995 39.8998C9.24989 40.9001 9.68653 41.8395 10.4062 42.5378C11.1259 43.2361 12.078 43.6443 13.08 43.6841C14.7685 43.7412 16.4571 43.7155 18.1457 43.6069C18.6735 43.5688 19.1669 43.3307 19.5253 42.9413C19.8837 42.5518 20.08 42.0404 20.0742 41.5112V37.8855C20.0732 37.2161 20.046 36.547 19.9928 35.8798C19.9222 34.8796 19.4862 33.9403 18.7678 33.2409C18.0494 32.5415 17.0988 32.1307 16.0971 32.0869C15.0902 32.0546 14.0826 32.0546 13.0757 32.0869C12.074 32.1307 11.1234 32.5415 10.405 33.2409C9.68656 33.9403 9.25054 34.8796 9.17995 35.8798C9.12528 36.547 9.09669 37.2161 9.09424 37.8855C9.0971 38.5655 9.12567 39.2369 9.17995 39.8998ZM24.5142 41.4683C24.5142 42.5226 25.2771 43.4269 26.3271 43.5298C28.7271 43.7741 31.2728 43.7741 33.6771 43.5298C34.1805 43.4725 34.6446 43.2303 34.9796 42.8502C35.3145 42.4701 35.4964 41.9792 35.49 41.4726V34.4441C35.49 32.6098 35.3957 30.8098 35.2842 29.0612C35.1557 27.0383 33.6428 25.3326 31.6242 25.2212C30.545 25.1628 29.4635 25.1628 28.3842 25.2212C26.3614 25.3326 24.8442 27.0383 24.72 29.0612C24.6085 30.8098 24.5142 32.6098 24.5142 34.4441V41.4683ZM39.9257 41.3998C39.9257 42.3983 40.6114 43.2726 41.5928 43.4269C43.4785 43.7269 45.3642 43.7926 47.25 43.6241C49.1785 43.4526 50.5328 41.7555 50.6185 39.8226C50.7557 36.6598 50.9057 33.3726 50.9057 29.9998C50.9057 26.6269 50.7557 23.3398 50.6185 20.1769C50.5328 18.2483 49.1828 16.5469 47.2542 16.3712C46.0294 16.2656 44.7977 16.2656 43.5728 16.3712C41.6442 16.5426 40.2942 18.2441 40.2085 20.1769C40.0714 23.3398 39.9214 26.6269 39.9214 29.9998V41.3998H39.9257Z" fill="#2859C5"/>
</svg>
