<svg width="32" height="32" viewBox="0 0 32 32" fill="none" xmlns="http://www.w3.org/2000/svg">
<path d="M30.8087 21.9995H8.30875C6.565 21.9995 5.69312 21.9995 4.97687 22.1525C4.02308 22.3571 3.15343 22.759 2.45533 23.3177C1.75724 23.8765 1.25531 24.5724 1 25.3355" stroke="#478DF8" stroke-width="2"/>
<path d="M8.5 8.5H23.5M8.5 13.75H17.875M12.25 31C6.9475 31 4.29438 31 2.64813 29.6815C1 28.3645 1 26.242 1 22V10C1 5.758 1 3.6355 2.64813 2.3185C4.29438 1 6.9475 1 12.25 1H19.75C25.0525 1 27.7056 1 29.3519 2.3185C31 3.6355 31 5.758 31 10M19.75 31C25.0525 31 27.7056 31 29.3519 29.6815C31 28.3645 31 26.242 31 22V16" stroke="#478DF8" stroke-width="2" stroke-linecap="round"/>
</svg>
