<svg width="39" height="38" viewBox="0 0 39 38" fill="none" xmlns="http://www.w3.org/2000/svg">
<path d="M21.6541 26.125C21.6541 26.7549 21.4038 27.359 20.9584 27.8044C20.513 28.2498 19.9089 28.5 19.2791 28.5C18.6492 28.5 18.0451 28.2498 17.5997 27.8044C17.1543 27.359 16.9041 26.7549 16.9041 26.125C16.9041 25.4951 17.1543 24.891 17.5997 24.4456C18.0451 24.0002 18.6492 23.75 19.2791 23.75C19.9089 23.75 20.513 24.0002 20.9584 24.4456C21.4038 24.891 21.6541 25.4951 21.6541 26.125ZM18.0916 9.5C16.5168 9.5 15.0066 10.1256 13.8931 11.2391C12.7796 12.3526 12.1541 13.8628 12.1541 15.4375H16.9041C16.9041 15.1226 17.0292 14.8205 17.2519 14.5978C17.4746 14.3751 17.7766 14.25 18.0916 14.25H19.6258C19.8303 14.2501 20.0288 14.3193 20.189 14.4463C20.3492 14.5733 20.4619 14.7508 20.5086 14.9499C20.5554 15.1489 20.5335 15.358 20.4465 15.543C20.3596 15.7281 20.2126 15.8784 20.0296 15.9695L16.9041 17.5322V21.375H21.6541V20.4678L22.1552 20.216C23.2943 19.6457 24.2076 18.7077 24.7473 17.5537C25.2869 16.3998 25.4213 15.0975 25.1286 13.8576C24.836 12.6178 24.1335 11.513 23.1348 10.7222C22.1361 9.93134 20.8997 9.5007 19.6258 9.5H18.0916Z" fill="#478DF8"/>
<path d="M0.279053 19C0.279053 13.9609 2.28083 9.12816 5.84402 5.56497C9.40722 2.00178 14.2399 0 19.2791 0C24.3182 0 29.1509 2.00178 32.7141 5.56497C36.2773 9.12816 38.2791 13.9609 38.2791 19C38.2791 24.0391 36.2773 28.8718 32.7141 32.435C29.1509 35.9982 24.3182 38 19.2791 38C14.2399 38 9.40722 35.9982 5.84402 32.435C2.28083 28.8718 0.279053 24.0391 0.279053 19ZM19.2791 4.75C17.4077 4.75 15.5547 5.11859 13.8258 5.83472C12.0969 6.55085 10.526 7.60049 9.20278 8.92373C7.87955 10.247 6.8299 11.8179 6.11377 13.5468C5.39764 15.2757 5.02905 17.1287 5.02905 19C5.02905 20.8713 5.39764 22.7243 6.11377 24.4532C6.8299 26.1821 7.87955 27.753 9.20278 29.0763C10.526 30.3995 12.0969 31.4492 13.8258 32.1653C15.5547 32.8814 17.4077 33.25 19.2791 33.25C23.0584 33.25 26.6829 31.7487 29.3553 29.0763C32.0277 26.4039 33.5291 22.7793 33.5291 19C33.5291 15.2207 32.0277 11.5961 29.3553 8.92373C26.6829 6.25133 23.0584 4.75 19.2791 4.75Z" fill="#478DF8"/>
</svg>
